<svg width="64" height="69" viewBox="0 0 64 69" fill="none" xmlns="http://www.w3.org/2000/svg">
<path d="M49.4417 58.0116C53.6167 58.0116 57 54.9005 57 51.0672C57 47.2338 53.6167 44.1227 49.4417 44.1227H7M48.4944 21.9005C51.6583 21.9005 55.6111 23.2894 55.6111 28.8449C55.6111 34.4005 51.6583 35.7894 48.4917 35.7894H7M27.5889 66.3449C31.5611 66.3449 34.7778 63.2338 34.7778 59.4005C34.7778 55.5672 31.5583 52.4561 27.5889 52.4561H7M7 4.81924H16.8673M16.8673 4.81924H23.2106M16.8673 4.81924V2M26.7347 4.81924H23.2106M23.2106 4.81924C22.0547 8.67454 19.6316 12.3184 16.8673 15.5225M23.2106 4.81924L16.8673 15.5225M16.8673 15.5225C14.5781 18.174 12.0535 20.5238 9.81924 22.4395L16.8673 15.5225ZM16.8673 15.5225C15.4577 13.9818 13.2023 10.8806 12.6385 9.7529L16.8673 15.5225ZM16.8673 15.5225L21.0962 19.6202M23.2106 27.3731L24.8218 23.1443M24.8218 23.1443L28.8491 12.5721L32.8764 23.1443M24.8218 23.1443H32.8764M34.4876 27.3731L32.8764 23.1443" stroke="url(#paint0_linear_520_5352)" stroke-width="4" stroke-linecap="round" stroke-linejoin="round"/>
<defs>
<linearGradient id="paint0_linear_520_5352" x1="67.199" y1="14.9353" x2="7" y2="14.9353" gradientUnits="userSpaceOnUse">
<stop stop-color="#EDF6FA"/>
<stop offset="1" stop-color="#8DD9F7"/>
</linearGradient>
</defs>
</svg>
