<svg width="64" height="64" viewBox="0 0 64 64" fill="none" xmlns="http://www.w3.org/2000/svg">
<path d="M49.4417 54.2294C53.6167 54.2294 57 51.3283 57 47.7539C57 44.1794 53.6167 41.2784 49.4417 41.2784H7M48.4944 20.5567C51.6583 20.5567 55.6111 21.8518 55.6111 27.0322C55.6111 32.2126 51.6583 33.5077 48.4917 33.5077H7M27.5889 62C31.5611 62 34.7778 59.099 34.7778 55.5245C34.7778 51.95 31.5583 49.049 27.5889 49.049H7M7 4.62887H16.8673M16.8673 4.62887H23.2106M16.8673 4.62887V2M26.7347 4.62887H23.2106M23.2106 4.62887C22.0547 8.22384 19.6316 11.6216 16.8673 14.6094M23.2106 4.62887L16.8673 14.6094M16.8673 14.6094C14.5781 17.0818 12.0535 19.273 9.81924 21.0593L16.8673 14.6094ZM16.8673 14.6094C15.4577 13.1727 13.2023 10.2809 12.6385 9.22938L16.8673 14.6094ZM16.8673 14.6094L21.0962 18.4304M23.2106 25.6598L24.8218 21.7165M24.8218 21.7165L28.8491 11.8582L32.8764 21.7165M24.8218 21.7165H32.8764M34.4876 25.6598L32.8764 21.7165" stroke="#8DD9F7" stroke-width="4" stroke-linecap="round" stroke-linejoin="round"/>
</svg>
